<mxfile host="app.diagrams.net" modified="2022-06-29T04:19:50.792Z" agent="5.0 (Windows NT 10.0; Win64; x64) AppleWebKit/537.36 (KHTML, like Gecko) Chrome/102.0.5005.124 Safari/537.36 Edg/102.0.1245.44" etag="iFVakWKKg2klDZM6DA7E" version="20.0.3" type="github">
  <diagram id="kQEtFm6jpIMlJpdwm5v1" name="DBase">
    <mxGraphModel dx="1247" dy="706" grid="1" gridSize="10" guides="1" tooltips="1" connect="1" arrows="1" fold="1" page="1" pageScale="1" pageWidth="827" pageHeight="1169" math="0" shadow="0">
      <root>
        <mxCell id="0" />
        <mxCell id="1" parent="0" />
        <mxCell id="HUZhfugKhlIjD8fj83C9-1" value="Controllers" style="swimlane;childLayout=stackLayout;horizontal=1;startSize=30;horizontalStack=0;rounded=1;fontSize=14;fontStyle=1;strokeWidth=2;resizeParent=0;resizeLast=1;shadow=0;dashed=0;align=center;" vertex="1" parent="1">
          <mxGeometry x="80" y="40" width="160" height="240" as="geometry" />
        </mxCell>
        <mxCell id="HUZhfugKhlIjD8fj83C9-2" value="+Id&#xa;+ControllerType&#xa;+MacAddress&#xa;+IpAddress&#xa;+Model&#xa;+LocationId&#xa;+SerialNumber&#xa;+Enabled&#xa;+AppSettings&#xa;+Number" style="align=left;strokeColor=none;fillColor=none;spacingLeft=4;fontSize=12;verticalAlign=top;resizable=0;rotatable=0;part=1;" vertex="1" parent="HUZhfugKhlIjD8fj83C9-1">
          <mxGeometry y="30" width="160" height="210" as="geometry" />
        </mxCell>
        <mxCell id="HUZhfugKhlIjD8fj83C9-3" value="ControllerTypes" style="swimlane;childLayout=stackLayout;horizontal=1;startSize=30;horizontalStack=0;rounded=1;fontSize=14;fontStyle=1;strokeWidth=2;resizeParent=0;resizeLast=1;shadow=0;dashed=0;align=center;" vertex="1" parent="1">
          <mxGeometry x="380" y="40" width="160" height="120" as="geometry" />
        </mxCell>
        <mxCell id="HUZhfugKhlIjD8fj83C9-4" value="+Id&#xa;+Description&#xa;+........" style="align=left;strokeColor=none;fillColor=none;spacingLeft=4;fontSize=12;verticalAlign=top;resizable=0;rotatable=0;part=1;" vertex="1" parent="HUZhfugKhlIjD8fj83C9-3">
          <mxGeometry y="30" width="160" height="90" as="geometry" />
        </mxCell>
        <mxCell id="HUZhfugKhlIjD8fj83C9-5" value="IODevices" style="swimlane;childLayout=stackLayout;horizontal=1;startSize=30;horizontalStack=0;rounded=1;fontSize=14;fontStyle=1;strokeWidth=2;resizeParent=0;resizeLast=1;shadow=0;dashed=0;align=center;" vertex="1" parent="1">
          <mxGeometry x="80" y="400" width="160" height="120" as="geometry" />
        </mxCell>
        <mxCell id="HUZhfugKhlIjD8fj83C9-6" value="+Id&#xa;+Description&#xa;+ControllerId&#xa;+Type&#xa;+UnitOfMeasureId" style="align=left;strokeColor=none;fillColor=none;spacingLeft=4;fontSize=12;verticalAlign=top;resizable=0;rotatable=0;part=1;" vertex="1" parent="HUZhfugKhlIjD8fj83C9-5">
          <mxGeometry y="30" width="160" height="90" as="geometry" />
        </mxCell>
        <mxCell id="HUZhfugKhlIjD8fj83C9-7" value="IODeviceTypes" style="swimlane;childLayout=stackLayout;horizontal=1;startSize=30;horizontalStack=0;rounded=1;fontSize=14;fontStyle=1;strokeWidth=2;resizeParent=0;resizeLast=1;shadow=0;dashed=0;align=center;fillColor=#CC00CC;strokeColor=#36393d;" vertex="1" parent="1">
          <mxGeometry x="350" y="400" width="160" height="120" as="geometry" />
        </mxCell>
        <mxCell id="HUZhfugKhlIjD8fj83C9-8" value="+Id&#xa;+Description" style="align=left;strokeColor=none;fillColor=none;spacingLeft=4;fontSize=12;verticalAlign=top;resizable=0;rotatable=0;part=1;" vertex="1" parent="HUZhfugKhlIjD8fj83C9-7">
          <mxGeometry y="30" width="160" height="90" as="geometry" />
        </mxCell>
        <mxCell id="HUZhfugKhlIjD8fj83C9-10" value="" style="edgeStyle=entityRelationEdgeStyle;fontSize=12;html=1;endArrow=ERmany;rounded=0;entryX=1;entryY=0.25;entryDx=0;entryDy=0;exitX=0;exitY=0.25;exitDx=0;exitDy=0;" edge="1" parent="1" source="HUZhfugKhlIjD8fj83C9-4" target="HUZhfugKhlIjD8fj83C9-2">
          <mxGeometry width="100" height="100" relative="1" as="geometry">
            <mxPoint x="610" y="250" as="sourcePoint" />
            <mxPoint x="710" y="150" as="targetPoint" />
          </mxGeometry>
        </mxCell>
        <mxCell id="HUZhfugKhlIjD8fj83C9-11" value="" style="edgeStyle=orthogonalEdgeStyle;fontSize=12;html=1;endArrow=ERmany;rounded=0;entryX=0.5;entryY=0;entryDx=0;entryDy=0;exitX=0.5;exitY=1;exitDx=0;exitDy=0;" edge="1" parent="1" source="HUZhfugKhlIjD8fj83C9-2" target="HUZhfugKhlIjD8fj83C9-5">
          <mxGeometry width="100" height="100" relative="1" as="geometry">
            <mxPoint x="390" y="102.5" as="sourcePoint" />
            <mxPoint x="250" y="102.5" as="targetPoint" />
          </mxGeometry>
        </mxCell>
        <mxCell id="HUZhfugKhlIjD8fj83C9-12" value="ControllerLogs (???)" style="swimlane;childLayout=stackLayout;horizontal=1;startSize=30;horizontalStack=0;rounded=1;fontSize=14;fontStyle=1;strokeWidth=2;resizeParent=0;resizeLast=1;shadow=0;dashed=0;align=center;fillColor=#ffff88;strokeColor=#36393d;" vertex="1" parent="1">
          <mxGeometry x="590" y="40" width="160" height="130" as="geometry" />
        </mxCell>
        <mxCell id="HUZhfugKhlIjD8fj83C9-13" value="+Id&#xa;+Description&#xa;+Type&#xa;+Event&#xa;+Message&#xa;+Time" style="align=left;strokeColor=none;fillColor=none;spacingLeft=4;fontSize=12;verticalAlign=top;resizable=0;rotatable=0;part=1;" vertex="1" parent="HUZhfugKhlIjD8fj83C9-12">
          <mxGeometry y="30" width="160" height="100" as="geometry" />
        </mxCell>
        <mxCell id="HUZhfugKhlIjD8fj83C9-14" value="IODeviceLogs" style="swimlane;childLayout=stackLayout;horizontal=1;startSize=30;horizontalStack=0;rounded=1;fontSize=14;fontStyle=1;strokeWidth=2;resizeParent=0;resizeLast=1;shadow=0;dashed=0;align=center;" vertex="1" parent="1">
          <mxGeometry x="80" y="600" width="160" height="190" as="geometry" />
        </mxCell>
        <mxCell id="HUZhfugKhlIjD8fj83C9-15" value="+Id&#xa;+IODeviceId&#xa;+Time&#xa;+Value&#xa;+Details&#xa;+LocationId" style="align=left;strokeColor=none;fillColor=none;spacingLeft=4;fontSize=12;verticalAlign=top;resizable=0;rotatable=0;part=1;" vertex="1" parent="HUZhfugKhlIjD8fj83C9-14">
          <mxGeometry y="30" width="160" height="160" as="geometry" />
        </mxCell>
        <mxCell id="HUZhfugKhlIjD8fj83C9-16" value="RfidLogs (???)" style="swimlane;childLayout=stackLayout;horizontal=1;startSize=30;horizontalStack=0;rounded=1;fontSize=14;fontStyle=1;strokeWidth=2;resizeParent=0;resizeLast=1;shadow=0;dashed=0;align=center;fillColor=#ffff88;strokeColor=#36393d;" vertex="1" parent="1">
          <mxGeometry x="630" y="585" width="160" height="120" as="geometry" />
        </mxCell>
        <mxCell id="HUZhfugKhlIjD8fj83C9-17" value="+Id&#xa;+Description&#xa;+Handled" style="align=left;strokeColor=none;fillColor=none;spacingLeft=4;fontSize=12;verticalAlign=top;resizable=0;rotatable=0;part=1;" vertex="1" parent="HUZhfugKhlIjD8fj83C9-16">
          <mxGeometry y="30" width="160" height="90" as="geometry" />
        </mxCell>
        <mxCell id="HUZhfugKhlIjD8fj83C9-18" value="" style="edgeStyle=orthogonalEdgeStyle;fontSize=12;html=1;endArrow=ERmany;rounded=0;entryX=0.5;entryY=0;entryDx=0;entryDy=0;exitX=0.5;exitY=1;exitDx=0;exitDy=0;" edge="1" parent="1" source="HUZhfugKhlIjD8fj83C9-6" target="HUZhfugKhlIjD8fj83C9-14">
          <mxGeometry width="100" height="100" relative="1" as="geometry">
            <mxPoint x="170" y="290" as="sourcePoint" />
            <mxPoint x="170" y="410" as="targetPoint" />
          </mxGeometry>
        </mxCell>
      </root>
    </mxGraphModel>
  </diagram>
</mxfile>
